<svg xmlns="http://www.w3.org/2000/svg" version="1.1" xmlns:xlink="http://www.w3.org/1999/xlink" viewBox="0 0 12.480126816303283 3.811879933901922"><g transform="matrix(0.7373721166761966,0,0,0.7373721166761966,5.5006200597212525,1.474577278695386)"><g transform="matrix(1,0,0,1,0,0)" clip-path="url(#SvgjsClipPath160789)"><g clip-path="url(#SvgjsClipPath1607879fdb27d7-97fd-403d-994a-799dd1ad2dd7)"><path d=" M -3.1440621976679655 0.584973807202879 C -3.14269799183601 0.5322319928831682 -3.162991859816369 0.481232291074313 -3.2002195546970733 0.4438470163106365 L -4.229858409554931 -0.5857918385472126 C -4.265899798482386 -0.6220248601852938 -4.314955444912521 -0.6423074832285224 -4.366060954588272 -0.6421063523590759 C -4.417166464264034 -0.6423074832285224 -4.4662221106941695 -0.6220248601852938 -4.502263499621613 -0.5857918385472126 C -4.5385107763138555 -0.5497557783114937 -4.558811813504352 -0.5007012274794639 -4.558630399027722 -0.44958929351386745 C -4.558811813504352 -0.39847735954827396 -4.5385107763138555 -0.3494228087162427 -4.502263499621624 -0.3133867484805252 L -3.6035362447785175 0.5853405063625834 L -4.502263499621613 1.4841201467999336 C -4.5385107763138555 1.5201562070356511 -4.558811813504352 1.5692107578676808 -4.558630399027722 1.6203226918332774 C -4.558835287157427 1.6714392450863718 -4.538530649381741 1.7205024962171758 -4.502263499621613 1.7565252368666282 C -4.466240758972173 1.7927923866267508 -4.417177507841368 1.8130970244024216 -4.366060954588272 1.81289213627273 C -4.314955444912521 1.8130932671421778 -4.265899798482386 1.7928106440989493 -4.229858409554931 1.756577622460868 L -3.2002195546970853 0.7269387676030192 C -3.162777693890086 0.6893510182392995 -3.142466191020817 0.6380038421425533 -3.144062197667954 0.5849738072028805 Z" fill="#1c1c1c" transform="matrix(1,0,0,1,0,0)" fill-rule="nonzero"></path></g><g clip-path="url(#SvgjsClipPath1607879fdb27d7-97fd-403d-994a-799dd1ad2dd7)"><path d=" M -2.32721362662759 0.584973807202879 C -2.326018814102366 0.5416518249287436 -2.3426661812587044 0.4997398527820145 -2.3732605639677113 0.4690444871418047 L -3.255800670189535 -0.41349561908003096 C -3.2853134725741677 -0.44317519798651694 -3.325474253215551 -0.4598129661996201 -3.367329600334151 -0.4596997132028823 C -3.4092030920743968 -0.45982697542396456 -3.4493853314818113 -0.4431881326270983 -3.478910916073005 -0.41349561908003096 C -3.508546098162613 -0.3839530794741687 -3.52517584366987 -0.3438116642984949 -3.525115010195865 -0.30196668893541806 C -3.525189801981309 -0.2601035654181771 -3.508558989420386 -0.2199407187574039 -3.478910916073005 -0.19038537319656673 L -2.7036041212678086 0.5849214216086347 L -3.478910916073005 1.360228216413833 C -3.508558989420374 1.3897835619746701 -3.525189801981309 1.4299464086354432 -3.525115010195865 1.4718095321526887 C -3.52517584366987 1.513654507515754 -3.5085460981626246 1.5537959226914275 -3.478910916073017 1.5833384622972912 C -3.4493853314818113 1.6130309758443675 -3.4092030920743968 1.629669818641234 -3.367329600334151 1.6295425564201513 C -3.325474253215551 1.6296558094168894 -3.2853134725741677 1.6130180412037862 -3.255800670189535 1.5833384622973001 L -2.373208178373461 0.7007983560754645 C -2.34269119335122 0.670098879226934 -2.326070987675263 0.6282454911294979 -2.3272136266275782 0.5849738072028805 Z" fill="#1c1c1c" transform="matrix(1,0,0,1,0,0)" fill-rule="nonzero"></path></g><g clip-path="url(#SvgjsClipPath1607879fdb27d7-97fd-403d-994a-799dd1ad2dd7)"><path d=" M -1.5764756755226412 0.584973807202879 C -1.575487239968664 0.5510782832693444 -1.5884825108918772 0.5182680657197838 -1.612412193173764 0.4942419579729731 L -2.347801165165327 -0.24119939961284925 C -2.370842630146609 -0.2644001620548274 -2.4022201974322535 -0.27740024856102563 -2.434918408392422 -0.2772930740466843 C -2.467600790338309 -0.27739794991634825 -2.4989612346150816 -0.2643971399845197 -2.5219832660252903 -0.2411993996128478 C -2.5700282973351283 -0.19307797418065598 -2.5700282973351283 -0.11513872418509263 -2.5219832660252783 -0.0670172987528993 L -1.8699921600695033 0.5849738072028774 L -2.5219832660252783 1.2370172987528971 C -2.5700282973351283 1.2851387241850905 -2.5700282973351283 1.3630779741806538 -2.5219832660252783 1.411199399612847 C -2.498947929389058 1.434377307683864 -2.4675961611135944 1.4473745208859061 -2.434918408392422 1.4472930740466834 C -2.4022248196997946 1.447376837386935 -2.3708559192231813 1.4343803416392624 -2.347801165165327 1.4111993996128487 L -1.6123598075795016 0.6757580420270262 C -1.5884411808026613 0.651707019748704 -1.5754651242502122 0.6188785438284301 -1.5764756755226412 0.584973807202879 Z" fill="#1c1c1c" transform="matrix(1,0,0,1,0,0)" fill-rule="nonzero"></path></g><g clip-path="url(#SvgjsClipPath1607879fdb27d7-97fd-403d-994a-799dd1ad2dd7)"><path d=" M -0.9186173830115822 0.584973807202879 C -0.9177836282540133 0.5605060109957625 -0.9271130944973716 0.5367841364623374 -0.9443910953794323 0.5194394288041415 L -1.5327860899234858 -0.06895556573991046 C -1.5493797571042403 -0.08576353846448426 -1.5720298496343759 -0.09520107701870828 -1.595648803015787 -0.09514836286170802 C -1.6192665848962946 -0.09519518725215548 -1.6419144917476243 -0.0857585593974397 -1.6585115161081236 -0.06895556573991046 C -1.6930388643489245 -0.03432212512050492 -1.6930388643489245 0.021717335071361088 -1.6585115161081116 0.05635077569076663 L -1.129836099001758 0.584973807202879 L -1.6585115161081116 1.1136492243092342 C -1.6930388643489245 1.1482826649286397 -1.6930388643489245 1.2043221251205058 -1.6585115161081116 1.2389555657399112 C -1.6419144917476243 1.2557585593974405 -1.6192665848962946 1.2651951872521563 -1.5956488030158105 1.2651483628617088 C -1.5720298496343759 1.2652010770187092 -1.5493797571042403 1.2557635384644852 -1.5327860899234742 1.2389555657399112 L -0.9443910953794323 0.6505605711958593 C -0.927110299322274 0.6331962483605147 -0.9177816209671645 0.6094574164487419 -0.9186173830115703 0.584973807202879 Z" fill="#1c1c1c" transform="matrix(1,0,0,1,0,0)" fill-rule="nonzero"></path></g><g clip-path="url(#SvgjsClipPath1607879fdb27d7-97fd-403d-994a-799dd1ad2dd7)"><path d=" M -0.4157156782730791 0.5446368996353099 L -0.8570119241811098 0.10334065372727119 C -0.8671337372679777 0.09319991311826947 -0.8808732270112123 0.08750131054914789 -0.8952010223846978 0.08750131054914789 C -0.9095288177581837 0.08750131054914789 -0.9232683075014063 0.09319991311826947 -0.9333901205882742 0.10334065372727119 C -0.9435308611972775 0.11346246681413452 -0.9492294637663958 0.1272019565573661 -0.9492294637663958 0.14152975193085038 C -0.9492294637663958 0.15585754730433465 -0.9435308611972775 0.16959703704756623 -0.9333901205882742 0.17971885013442956 L -0.5280827779255803 0.5849738072028774 L -0.9333901205882742 0.9902811498655668 C -0.9435308611972775 1.00040296295243 -0.9492294637663958 1.0141424526956617 -0.9492294637663958 1.0284702480691459 C -0.9492294637663958 1.0427980434426303 -0.9435308611972775 1.0565375331858617 -0.9333901205882742 1.0666593462727252 C -0.9232683075014063 1.0768000868817285 -0.9095288177581837 1.08249868945085 -0.8952010223846978 1.08249868945085 C -0.8808732270112123 1.08249868945085 -0.8671337372679777 1.0768000868817285 -0.8570119241811098 1.0666593462727265 L -0.4157156782730791 0.625363100364688 C -0.40505183963089575 0.6146950937650633 -0.39935091910695775 0.6000437280185371 -0.40000000000000036 0.5849738072028774 C -0.39935928205476046 0.569920748007982 -0.405060047283615 0.555288783920588 -0.4157156782730791 0.5446368996353099 Z" fill="#1c1c1c" transform="matrix(1,0,0,1,0,0)" fill-rule="nonzero"></path></g></g><g><path d=" M 1.419 0.6749999999999999 L 1.419 1.134 Q 1.419 1.1504999999999999 1.33425 1.16025 Q 1.2495 1.17 1.15875 1.17 Q 1.068 1.17 1.041 1.1617499999999998 Q 1.014 1.1535 1.014 1.134 L 1.014 0.7184999999999999 Q 1.014 0.5039999999999999 0.9705 0.5039999999999999 Q 0.96 0.5039999999999999 0.9495 0.5129999999999999 Q 0.9390000000000001 0.5219999999999999 0.9390000000000001 0.5444999999999999 L 0.9390000000000001 1.134 Q 0.9390000000000001 1.1504999999999999 0.8542500000000001 1.16025 Q 0.7695 1.17 0.678 1.17 Q 0.5865 1.17 0.56025 1.1617499999999998 Q 0.534 1.1535 0.534 1.134 L 0.534 0.7184999999999999 Q 0.534 0.5519999999999999 0.513 0.5189999999999999 Q 0.5025000000000001 0.5039999999999999 0.486 0.5039999999999999 Q 0.4575 0.5039999999999999 0.4575 0.5444999999999999 L 0.4575 1.134 Q 0.4575 1.1504999999999999 0.372 1.16025 Q 0.28650000000000003 1.17 0.19575 1.17 Q 0.105 1.17 0.07875 1.1617499999999998 Q 0.0525 1.1535 0.0525 1.134 L 0.0525 0.39449999999999996 Q 0.0525 0.3629999999999999 0.13875 0.3314999999999999 Q 0.225 0.29999999999999993 0.321 0.29999999999999993 Q 0.417 0.29999999999999993 0.429 0.3554999999999999 L 0.4425 0.4214999999999999 L 0.453 0.4214999999999999 Q 0.4965 0.33599999999999997 0.597 0.29999999999999993 Q 0.639 0.28649999999999987 0.705 0.28649999999999987 Q 0.837 0.28649999999999987 0.897 0.4214999999999999 Q 0.9165 0.37649999999999995 0.9945 0.3314999999999999 Q 1.0725 0.28649999999999987 1.167 0.28649999999999987 Q 1.3155000000000001 0.28649999999999987 1.36725 0.3787499999999999 Q 1.419 0.47099999999999986 1.419 0.6749999999999999 M 1.9455420996093753 0.39449999999999996 L 1.9455420996093753 1.134 Q 1.9455420996093753 1.1504999999999999 1.8592920996093754 1.16025 Q 1.7730420996093752 1.17 1.6822920996093753 1.17 Q 1.5915420996093752 1.17 1.5652920996093753 1.1617499999999998 Q 1.5390420996093752 1.1535 1.5390420996093752 1.134 L 1.5390420996093752 0.4214999999999999 Q 1.5390420996093752 0.38849999999999996 1.6237920996093753 0.35624999999999996 Q 1.7085420996093752 0.32399999999999995 1.8090420996093752 0.32399999999999995 Q 1.9455420996093753 0.32399999999999995 1.9455420996093753 0.39449999999999996 M 1.7415420996093753 0 Q 1.840542099609375 0 1.8967920996093752 0.029249999999999998 Q 1.9530420996093754 0.058499999999999996 1.9530420996093754 0.135 Q 1.9530420996093754 0.2699999999999999 1.7430420996093752 0.2699999999999999 Q 1.5330420996093752 0.2699999999999999 1.5330420996093752 0.135 Q 1.5330420996093752 0 1.7415420996093753 0 M 2.9715204785156253 0.6719999999999999 L 2.9715204785156253 1.134 Q 2.9715204785156253 1.1504999999999999 2.8860204785156256 1.16025 Q 2.8005204785156255 1.17 2.7097704785156256 1.17 Q 2.6190204785156252 1.17 2.5927704785156256 1.1617499999999998 Q 2.5665204785156255 1.1535 2.5665204785156255 1.134 L 2.5665204785156255 0.6569999999999999 Q 2.5665204785156255 0.5894999999999999 2.5612704785156253 0.5684999999999999 Q 2.5560204785156255 0.5474999999999999 2.5515204785156254 0.5309999999999999 Q 2.5410204785156254 0.5025 2.5140204785156253 0.5025 Q 2.4720204785156255 0.5025 2.4720204785156255 0.5429999999999999 L 2.4720204785156255 1.134 Q 2.4720204785156255 1.1504999999999999 2.3872704785156253 1.16025 Q 2.3025204785156257 1.17 2.2117704785156254 1.17 Q 2.1210204785156255 1.17 2.0940204785156253 1.1617499999999998 Q 2.0670204785156256 1.1535 2.0670204785156256 1.134 L 2.0670204785156256 0.39449999999999996 Q 2.0670204785156256 0.3629999999999999 2.1532704785156254 0.3314999999999999 Q 2.2395204785156255 0.29999999999999993 2.3355204785156256 0.29999999999999993 Q 2.4315204785156252 0.29999999999999993 2.4435204785156253 0.3554999999999999 L 2.4570204785156253 0.4214999999999999 L 2.4675204785156253 0.4214999999999999 Q 2.5110204785156256 0.3344999999999999 2.617520478515625 0.29999999999999993 Q 2.6610204785156255 0.28649999999999987 2.7135204785156253 0.28649999999999987 Q 2.8650204785156257 0.28649999999999987 2.9182704785156255 0.37724999999999986 Q 2.9715204785156253 0.46799999999999986 2.9715204785156253 0.6719999999999999 M 3.497995927734375 0.39449999999999996 L 3.497995927734375 1.134 Q 3.497995927734375 1.1504999999999999 3.4117459277343753 1.16025 Q 3.325495927734375 1.17 3.2347459277343753 1.17 Q 3.1439959277343754 1.17 3.1177459277343753 1.1617499999999998 Q 3.091495927734375 1.1535 3.091495927734375 1.134 L 3.091495927734375 0.4214999999999999 Q 3.091495927734375 0.38849999999999996 3.1762459277343753 0.35624999999999996 Q 3.2609959277343754 0.32399999999999995 3.361495927734375 0.32399999999999995 Q 3.497995927734375 0.32399999999999995 3.497995927734375 0.39449999999999996 M 3.2939959277343753 0 Q 3.392995927734375 0 3.449245927734375 0.029249999999999998 Q 3.5054959277343753 0.058499999999999996 3.5054959277343753 0.135 Q 3.5054959277343753 0.2699999999999999 3.2954959277343754 0.2699999999999999 Q 3.0854959277343754 0.2699999999999999 3.0854959277343754 0.135 Q 3.0854959277343754 0 3.2939959277343753 0 M 4.472224306640625 1.0747499999999999 Q 4.348474306640625 1.182 4.113724306640625 1.182 Q 3.878974306640625 1.182 3.752974306640625 1.0747499999999999 Q 3.626974306640625 0.9674999999999999 3.626974306640625 0.7515 L 3.626974306640625 0.20099999999999996 Q 3.626974306640625 0.16349999999999998 3.711724306640625 0.13349999999999995 Q 3.796474306640625 0.10349999999999993 3.908974306640625 0.10349999999999993 Q 3.998974306640625 0.10349999999999993 4.025974306640625 0.1379999999999999 Q 4.045474306640625 0.1649999999999998 4.045474306640625 0.1844999999999999 L 4.045474306640625 0.6315 Q 4.045474306640625 0.8009999999999999 4.058224306640625 0.8557499999999999 Q 4.070974306640625 0.9104999999999999 4.112974306640625 0.9104999999999999 Q 4.154974306640625 0.9104999999999999 4.1662243066406255 0.8572499999999998 Q 4.177474306640625 0.8039999999999999 4.177474306640625 0.6299999999999999 L 4.177474306640625 0.20099999999999996 Q 4.177474306640625 0.16349999999999998 4.262224306640625 0.13349999999999995 Q 4.346974306640625 0.10349999999999993 4.457974306640625 0.10349999999999993 Q 4.552474306640625 0.10349999999999993 4.577974306640625 0.1379999999999999 Q 4.595974306640625 0.1649999999999998 4.595974306640625 0.1844999999999999 L 4.595974306640625 0.7515 Q 4.595974306640625 0.9674999999999999 4.472224306640625 1.0747499999999999 M 5.145009082031249 1.1264999999999998 Q 5.145009082031249 1.146 5.053509082031249 1.158 Q 4.9620090820312495 1.17 4.8697590820312495 1.17 Q 4.77750908203125 1.17 4.7512590820312495 1.1595 Q 4.725009082031249 1.149 4.725009082031249 1.1264999999999998 L 4.725009082031249 0.16199999999999992 Q 4.725009082031249 0.123 4.8232590820312495 0.10649999999999982 Q 4.92150908203125 0.08999999999999986 5.07150908203125 0.08999999999999986 Q 5.2215090820312495 0.08999999999999986 5.265759082031249 0.09074999999999989 Q 5.31000908203125 0.09149999999999991 5.37000908203125 0.09599999999999986 Q 5.430009082031249 0.10049999999999981 5.46525908203125 0.11099999999999999 Q 5.500509082031249 0.12149999999999994 5.54325908203125 0.1379999999999999 Q 5.58600908203125 0.15449999999999986 5.61000908203125 0.18074999999999986 Q 5.63400908203125 0.20699999999999996 5.65650908203125 0.24299999999999988 Q 5.69700908203125 0.3074999999999999 5.69700908203125 0.42674999999999996 Q 5.69700908203125 0.5459999999999999 5.65725908203125 0.6277499999999999 Q 5.617509082031249 0.7094999999999999 5.55150908203125 0.7515 Q 5.72400908203125 1.023 5.72400908203125 1.0965 Q 5.72400908203125 1.17 5.428509082031249 1.17 Q 5.34300908203125 1.17 5.31000908203125 1.1624999999999999 Q 5.27700908203125 1.155 5.2680090820312495 1.1295 L 5.17050908203125 0.8204999999999999 L 5.145009082031249 0.819 L 5.145009082031249 1.1264999999999998 M 5.145009082031249 0.588 L 5.18400908203125 0.588 Q 5.27100908203125 0.588 5.27100908203125 0.45299999999999996 Q 5.27100908203125 0.3839999999999999 5.24775908203125 0.3554999999999999 Q 5.22450908203125 0.32699999999999996 5.194509082031249 0.32699999999999996 L 5.145009082031249 0.32699999999999996 L 5.145009082031249 0.588 M 5.9340292089843745 1.17 Q 5.859029208984374 1.17 5.833529208984374 1.1617499999999998 Q 5.808029208984374 1.1535 5.808029208984374 1.134 L 5.808029208984374 0.20099999999999996 Q 5.808029208984374 0.16799999999999993 5.895029208984375 0.13574999999999982 Q 5.9820292089843745 0.10349999999999993 6.090029208984374 0.10349999999999993 Q 6.186029208984374 0.10349999999999993 6.2160292089843745 0.1439999999999999 Q 6.226529208984375 0.1589999999999998 6.226529208984375 0.17399999999999993 L 6.226529208984375 0.8384999999999999 Q 6.409529208984375 0.8264999999999999 6.502529208984375 0.8264999999999999 Q 6.534029208984375 0.8264999999999999 6.534029208984375 0.9262499999999999 Q 6.534029208984375 1.0259999999999998 6.5205292089843745 1.0979999999999999 Q 6.507029208984375 1.17 6.484529208984375 1.17 L 5.9340292089843745 1.17" fill="#231f20" fill-rule="nonzero"></path></g><g></g></g><defs><clipPath id="SvgjsClipPath160789"><path d=" M -4.558420856650768 -0.6421063523590773 h 4.158420856650768 v 2.4542127047181546 h -4.158420856650768 Z"></path></clipPath><clipPath id="SvgjsClipPath1607879fdb27d7-97fd-403d-994a-799dd1ad2dd7"><path d=" M -4.558420856650768 -0.6421063523590771 L -0.40000000000000036 -0.6421063523590771 L -0.40000000000000036 1.8121063523590772 L -4.558420856650768 1.8121063523590772 Z"></path></clipPath></defs></svg>